<mxfile host="app.diagrams.net" modified="2023-09-12T09:53:39.483Z" agent="Mozilla/5.0 (Macintosh; Intel Mac OS X 10_15_7) AppleWebKit/537.36 (KHTML, like Gecko) Chrome/116.0.0.0 Safari/537.36" etag="PITsOYkXvrichSu67lij" version="21.7.4" type="github">
  <diagram name="第 1 页" id="W2FvslWvtA4slZhp6-Pc">
    <mxGraphModel dx="1818" dy="1039" grid="1" gridSize="10" guides="1" tooltips="1" connect="1" arrows="1" fold="1" page="1" pageScale="1" pageWidth="4681" pageHeight="3300" math="0" shadow="0">
      <root>
        <mxCell id="0" />
        <mxCell id="1" parent="0" />
        <mxCell id="7Rt1AeMCabljhUDHSIz8-56" value="" style="rounded=0;whiteSpace=wrap;html=1;" vertex="1" parent="1">
          <mxGeometry x="1200" y="740" width="720" height="520" as="geometry" />
        </mxCell>
        <mxCell id="7Rt1AeMCabljhUDHSIz8-94" value="" style="edgeStyle=orthogonalEdgeStyle;rounded=0;orthogonalLoop=1;jettySize=auto;html=1;" edge="1" parent="1" source="7Rt1AeMCabljhUDHSIz8-1">
          <mxGeometry relative="1" as="geometry">
            <mxPoint x="427.5" y="370" as="targetPoint" />
          </mxGeometry>
        </mxCell>
        <mxCell id="7Rt1AeMCabljhUDHSIz8-1" value="广告主" style="shape=umlActor;verticalLabelPosition=bottom;verticalAlign=top;html=1;outlineConnect=0;" vertex="1" parent="1">
          <mxGeometry x="412.5" y="165" width="30" height="60" as="geometry" />
        </mxCell>
        <mxCell id="7Rt1AeMCabljhUDHSIz8-15" value="" style="edgeStyle=orthogonalEdgeStyle;rounded=0;orthogonalLoop=1;jettySize=auto;html=1;entryX=0;entryY=0.5;entryDx=0;entryDy=0;" edge="1" parent="1" source="7Rt1AeMCabljhUDHSIz8-2" target="7Rt1AeMCabljhUDHSIz8-3">
          <mxGeometry relative="1" as="geometry">
            <mxPoint x="650" y="395" as="targetPoint" />
          </mxGeometry>
        </mxCell>
        <mxCell id="7Rt1AeMCabljhUDHSIz8-2" value="&lt;font style=&quot;font-size: 18px;&quot;&gt;货品保效&lt;/font&gt;" style="rounded=0;whiteSpace=wrap;html=1;" vertex="1" parent="1">
          <mxGeometry x="365" y="370" width="125" height="50" as="geometry" />
        </mxCell>
        <mxCell id="7Rt1AeMCabljhUDHSIz8-65" value="" style="edgeStyle=orthogonalEdgeStyle;rounded=0;orthogonalLoop=1;jettySize=auto;html=1;" edge="1" parent="1" source="7Rt1AeMCabljhUDHSIz8-3" target="7Rt1AeMCabljhUDHSIz8-16">
          <mxGeometry relative="1" as="geometry" />
        </mxCell>
        <mxCell id="7Rt1AeMCabljhUDHSIz8-3" value="&lt;font style=&quot;font-size: 18px;&quot;&gt;提报商品&lt;/font&gt;" style="rounded=0;whiteSpace=wrap;html=1;" vertex="1" parent="1">
          <mxGeometry x="642.5" y="370" width="125" height="50" as="geometry" />
        </mxCell>
        <mxCell id="7Rt1AeMCabljhUDHSIz8-37" value="" style="edgeStyle=orthogonalEdgeStyle;rounded=0;orthogonalLoop=1;jettySize=auto;html=1;" edge="1" parent="1" source="7Rt1AeMCabljhUDHSIz8-5" target="7Rt1AeMCabljhUDHSIz8-31">
          <mxGeometry relative="1" as="geometry" />
        </mxCell>
        <mxCell id="7Rt1AeMCabljhUDHSIz8-38" value="导入" style="edgeLabel;html=1;align=center;verticalAlign=middle;resizable=0;points=[];" vertex="1" connectable="0" parent="7Rt1AeMCabljhUDHSIz8-37">
          <mxGeometry x="0.1232" y="-4" relative="1" as="geometry">
            <mxPoint as="offset" />
          </mxGeometry>
        </mxCell>
        <mxCell id="7Rt1AeMCabljhUDHSIz8-5" value="业务小二" style="shape=umlActor;verticalLabelPosition=bottom;verticalAlign=top;html=1;outlineConnect=0;" vertex="1" parent="1">
          <mxGeometry x="530" y="165" width="30" height="60" as="geometry" />
        </mxCell>
        <mxCell id="7Rt1AeMCabljhUDHSIz8-11" value="" style="edgeStyle=orthogonalEdgeStyle;rounded=0;orthogonalLoop=1;jettySize=auto;html=1;" edge="1" parent="1" source="7Rt1AeMCabljhUDHSIz8-8" target="7Rt1AeMCabljhUDHSIz8-3">
          <mxGeometry relative="1" as="geometry" />
        </mxCell>
        <mxCell id="7Rt1AeMCabljhUDHSIz8-8" value="&lt;font style=&quot;font-size: 18px;&quot;&gt;审核&lt;/font&gt;" style="rhombus;whiteSpace=wrap;html=1;" vertex="1" parent="1">
          <mxGeometry x="665" y="250" width="80" height="80" as="geometry" />
        </mxCell>
        <mxCell id="7Rt1AeMCabljhUDHSIz8-95" value="" style="edgeStyle=orthogonalEdgeStyle;rounded=0;orthogonalLoop=1;jettySize=auto;html=1;" edge="1" parent="1" source="7Rt1AeMCabljhUDHSIz8-16" target="7Rt1AeMCabljhUDHSIz8-66">
          <mxGeometry relative="1" as="geometry" />
        </mxCell>
        <mxCell id="7Rt1AeMCabljhUDHSIz8-16" value="&lt;font style=&quot;font-size: 18px;&quot;&gt;余额校验&lt;/font&gt;" style="rhombus;whiteSpace=wrap;html=1;" vertex="1" parent="1">
          <mxGeometry x="845" y="349.38" width="110" height="91.25" as="geometry" />
        </mxCell>
        <mxCell id="7Rt1AeMCabljhUDHSIz8-22" value="" style="edgeStyle=orthogonalEdgeStyle;rounded=0;orthogonalLoop=1;jettySize=auto;html=1;" edge="1" parent="1" source="7Rt1AeMCabljhUDHSIz8-19" target="7Rt1AeMCabljhUDHSIz8-20">
          <mxGeometry relative="1" as="geometry" />
        </mxCell>
        <mxCell id="7Rt1AeMCabljhUDHSIz8-19" value="&lt;font style=&quot;font-size: 18px;&quot;&gt;充值+冻结&lt;/font&gt;" style="rounded=0;whiteSpace=wrap;html=1;" vertex="1" parent="1">
          <mxGeometry x="1250" y="370" width="125" height="50" as="geometry" />
        </mxCell>
        <mxCell id="7Rt1AeMCabljhUDHSIz8-99" value="" style="edgeStyle=orthogonalEdgeStyle;rounded=0;orthogonalLoop=1;jettySize=auto;html=1;" edge="1" parent="1" source="7Rt1AeMCabljhUDHSIz8-20" target="7Rt1AeMCabljhUDHSIz8-27">
          <mxGeometry relative="1" as="geometry" />
        </mxCell>
        <mxCell id="7Rt1AeMCabljhUDHSIz8-20" value="&lt;font style=&quot;font-size: 18px;&quot;&gt;广告智投引擎&lt;/font&gt;" style="rounded=0;whiteSpace=wrap;html=1;" vertex="1" parent="1">
          <mxGeometry x="1467.5" y="370" width="125" height="50" as="geometry" />
        </mxCell>
        <mxCell id="7Rt1AeMCabljhUDHSIz8-97" value="" style="edgeStyle=orthogonalEdgeStyle;rounded=0;orthogonalLoop=1;jettySize=auto;html=1;" edge="1" parent="1" source="7Rt1AeMCabljhUDHSIz8-23" target="7Rt1AeMCabljhUDHSIz8-87">
          <mxGeometry relative="1" as="geometry" />
        </mxCell>
        <mxCell id="7Rt1AeMCabljhUDHSIz8-23" value="" style="whiteSpace=wrap;html=1;aspect=fixed;" vertex="1" parent="1">
          <mxGeometry x="1460" y="510" width="140" height="140" as="geometry" />
        </mxCell>
        <mxCell id="7Rt1AeMCabljhUDHSIz8-24" value="&lt;font style=&quot;font-size: 18px;&quot;&gt;计划&lt;/font&gt;" style="rounded=0;whiteSpace=wrap;html=1;" vertex="1" parent="1">
          <mxGeometry x="1466" y="560" width="60" height="30" as="geometry" />
        </mxCell>
        <mxCell id="7Rt1AeMCabljhUDHSIz8-25" value="&lt;font style=&quot;font-size: 18px;&quot;&gt;单元&lt;/font&gt;" style="rounded=0;whiteSpace=wrap;html=1;" vertex="1" parent="1">
          <mxGeometry x="1535" y="560" width="60" height="30" as="geometry" />
        </mxCell>
        <mxCell id="7Rt1AeMCabljhUDHSIz8-26" value="&lt;font style=&quot;font-size: 18px;&quot;&gt;创意&lt;/font&gt;" style="rounded=0;whiteSpace=wrap;html=1;" vertex="1" parent="1">
          <mxGeometry x="1500" y="606" width="60" height="30" as="geometry" />
        </mxCell>
        <mxCell id="7Rt1AeMCabljhUDHSIz8-27" value="&lt;font style=&quot;font-size: 18px;&quot;&gt;投放元数据&lt;br&gt;&lt;br&gt;&lt;/font&gt;" style="text;html=1;strokeColor=none;fillColor=none;align=center;verticalAlign=middle;whiteSpace=wrap;rounded=0;" vertex="1" parent="1">
          <mxGeometry x="1475" y="530" width="110" height="30" as="geometry" />
        </mxCell>
        <mxCell id="7Rt1AeMCabljhUDHSIz8-36" style="edgeStyle=orthogonalEdgeStyle;rounded=0;orthogonalLoop=1;jettySize=auto;html=1;exitX=0.5;exitY=1;exitDx=0;exitDy=0;entryX=0.5;entryY=0;entryDx=0;entryDy=0;" edge="1" parent="1" source="7Rt1AeMCabljhUDHSIz8-31" target="7Rt1AeMCabljhUDHSIz8-8">
          <mxGeometry relative="1" as="geometry" />
        </mxCell>
        <mxCell id="7Rt1AeMCabljhUDHSIz8-31" value="&lt;font style=&quot;font-size: 18px;&quot;&gt;保效选品&lt;/font&gt;" style="rounded=0;whiteSpace=wrap;html=1;" vertex="1" parent="1">
          <mxGeometry x="642.5" y="170" width="125" height="50" as="geometry" />
        </mxCell>
        <mxCell id="7Rt1AeMCabljhUDHSIz8-35" style="edgeStyle=orthogonalEdgeStyle;rounded=0;orthogonalLoop=1;jettySize=auto;html=1;exitX=0;exitY=0.5;exitDx=0;exitDy=0;" edge="1" parent="1" source="7Rt1AeMCabljhUDHSIz8-34">
          <mxGeometry relative="1" as="geometry">
            <mxPoint x="770" y="195" as="targetPoint" />
          </mxGeometry>
        </mxCell>
        <mxCell id="7Rt1AeMCabljhUDHSIz8-34" value="&lt;font style=&quot;font-size: 24px;&quot;&gt;算法选品&lt;/font&gt;" style="rounded=0;whiteSpace=wrap;html=1;" vertex="1" parent="1">
          <mxGeometry x="890" y="165" width="120" height="60" as="geometry" />
        </mxCell>
        <mxCell id="7Rt1AeMCabljhUDHSIz8-144" value="" style="edgeStyle=orthogonalEdgeStyle;rounded=0;orthogonalLoop=1;jettySize=auto;html=1;" edge="1" parent="1" source="7Rt1AeMCabljhUDHSIz8-41" target="7Rt1AeMCabljhUDHSIz8-140">
          <mxGeometry relative="1" as="geometry">
            <mxPoint x="910" y="910" as="targetPoint" />
          </mxGeometry>
        </mxCell>
        <mxCell id="7Rt1AeMCabljhUDHSIz8-41" value="" style="rounded=0;whiteSpace=wrap;html=1;" vertex="1" parent="1">
          <mxGeometry x="1234" y="830" width="222" height="160" as="geometry" />
        </mxCell>
        <mxCell id="7Rt1AeMCabljhUDHSIz8-42" value="计划效果" style="rounded=0;whiteSpace=wrap;html=1;" vertex="1" parent="1">
          <mxGeometry x="1246" y="870" width="90" height="30" as="geometry" />
        </mxCell>
        <mxCell id="7Rt1AeMCabljhUDHSIz8-43" value="商品效果" style="rounded=0;whiteSpace=wrap;html=1;" vertex="1" parent="1">
          <mxGeometry x="1356" y="870" width="90" height="30" as="geometry" />
        </mxCell>
        <mxCell id="7Rt1AeMCabljhUDHSIz8-44" value="人群效果" style="rounded=0;whiteSpace=wrap;html=1;" vertex="1" parent="1">
          <mxGeometry x="1246" y="910" width="90" height="30" as="geometry" />
        </mxCell>
        <mxCell id="7Rt1AeMCabljhUDHSIz8-45" value="创意效果" style="rounded=0;whiteSpace=wrap;html=1;" vertex="1" parent="1">
          <mxGeometry x="1356" y="910" width="90" height="30" as="geometry" />
        </mxCell>
        <mxCell id="7Rt1AeMCabljhUDHSIz8-46" value="词效果" style="rounded=0;whiteSpace=wrap;html=1;" vertex="1" parent="1">
          <mxGeometry x="1300" y="950" width="90" height="30" as="geometry" />
        </mxCell>
        <mxCell id="7Rt1AeMCabljhUDHSIz8-47" value="实时投放效果" style="text;html=1;strokeColor=none;fillColor=none;align=center;verticalAlign=middle;whiteSpace=wrap;rounded=0;" vertex="1" parent="1">
          <mxGeometry x="1299" y="837" width="110" height="30" as="geometry" />
        </mxCell>
        <mxCell id="7Rt1AeMCabljhUDHSIz8-134" value="" style="edgeStyle=orthogonalEdgeStyle;rounded=0;orthogonalLoop=1;jettySize=auto;html=1;entryX=0.5;entryY=1;entryDx=0;entryDy=0;" edge="1" parent="1" source="7Rt1AeMCabljhUDHSIz8-50" target="7Rt1AeMCabljhUDHSIz8-87">
          <mxGeometry relative="1" as="geometry">
            <mxPoint x="1625" y="670" as="targetPoint" />
            <Array as="points">
              <mxPoint x="1625" y="720" />
              <mxPoint x="1260" y="720" />
            </Array>
          </mxGeometry>
        </mxCell>
        <mxCell id="7Rt1AeMCabljhUDHSIz8-50" value="" style="rounded=0;whiteSpace=wrap;html=1;" vertex="1" parent="1">
          <mxGeometry x="1560" y="830" width="130" height="160" as="geometry" />
        </mxCell>
        <mxCell id="7Rt1AeMCabljhUDHSIz8-51" value="检索" style="rounded=0;whiteSpace=wrap;html=1;" vertex="1" parent="1">
          <mxGeometry x="1575" y="865" width="90" height="30" as="geometry" />
        </mxCell>
        <mxCell id="7Rt1AeMCabljhUDHSIz8-52" value="曝光" style="rounded=0;whiteSpace=wrap;html=1;" vertex="1" parent="1">
          <mxGeometry x="1575" y="905" width="90" height="30" as="geometry" />
        </mxCell>
        <mxCell id="7Rt1AeMCabljhUDHSIz8-53" value="点击" style="rounded=0;whiteSpace=wrap;html=1;" vertex="1" parent="1">
          <mxGeometry x="1575" y="945" width="90" height="30" as="geometry" />
        </mxCell>
        <mxCell id="7Rt1AeMCabljhUDHSIz8-55" value="DSP实时投放效果" style="text;html=1;strokeColor=none;fillColor=none;align=center;verticalAlign=middle;whiteSpace=wrap;rounded=0;" vertex="1" parent="1">
          <mxGeometry x="1570" y="832" width="112" height="30" as="geometry" />
        </mxCell>
        <mxCell id="7Rt1AeMCabljhUDHSIz8-138" value="" style="edgeStyle=orthogonalEdgeStyle;rounded=0;orthogonalLoop=1;jettySize=auto;html=1;endArrow=none;endFill=0;" edge="1" parent="1" source="7Rt1AeMCabljhUDHSIz8-57">
          <mxGeometry relative="1" as="geometry">
            <mxPoint x="1260" y="710" as="targetPoint" />
            <Array as="points">
              <mxPoint x="1120" y="1135" />
              <mxPoint x="1120" y="720" />
              <mxPoint x="1260" y="720" />
            </Array>
          </mxGeometry>
        </mxCell>
        <mxCell id="7Rt1AeMCabljhUDHSIz8-57" value="" style="rounded=0;whiteSpace=wrap;html=1;" vertex="1" parent="1">
          <mxGeometry x="1234" y="1070" width="286" height="130" as="geometry" />
        </mxCell>
        <mxCell id="7Rt1AeMCabljhUDHSIz8-58" value="阿里妈妈离线投放效果" style="rounded=0;whiteSpace=wrap;html=1;" vertex="1" parent="1">
          <mxGeometry x="1240" y="1100" width="130" height="30" as="geometry" />
        </mxCell>
        <mxCell id="7Rt1AeMCabljhUDHSIz8-59" value="天猫超市离线投放效果" style="rounded=0;whiteSpace=wrap;html=1;" vertex="1" parent="1">
          <mxGeometry x="1380" y="1100" width="130" height="30" as="geometry" />
        </mxCell>
        <mxCell id="7Rt1AeMCabljhUDHSIz8-60" value="手机天猫离线投放效果" style="rounded=0;whiteSpace=wrap;html=1;" vertex="1" parent="1">
          <mxGeometry x="1240" y="1160" width="130" height="30" as="geometry" />
        </mxCell>
        <mxCell id="7Rt1AeMCabljhUDHSIz8-61" value="猫超DSP离线投放效果" style="rounded=0;whiteSpace=wrap;html=1;" vertex="1" parent="1">
          <mxGeometry x="1380" y="1160" width="130" height="30" as="geometry" />
        </mxCell>
        <mxCell id="7Rt1AeMCabljhUDHSIz8-62" value="站外投放效果" style="text;html=1;strokeColor=none;fillColor=none;align=center;verticalAlign=middle;whiteSpace=wrap;rounded=0;" vertex="1" parent="1">
          <mxGeometry x="1322" y="1070" width="112" height="30" as="geometry" />
        </mxCell>
        <mxCell id="7Rt1AeMCabljhUDHSIz8-96" value="" style="edgeStyle=orthogonalEdgeStyle;rounded=0;orthogonalLoop=1;jettySize=auto;html=1;" edge="1" parent="1" source="7Rt1AeMCabljhUDHSIz8-66" target="7Rt1AeMCabljhUDHSIz8-19">
          <mxGeometry relative="1" as="geometry" />
        </mxCell>
        <mxCell id="7Rt1AeMCabljhUDHSIz8-66" value="&lt;font style=&quot;font-size: 18px;&quot;&gt;预估ROI、GMV&lt;/font&gt;" style="rounded=0;whiteSpace=wrap;html=1;" vertex="1" parent="1">
          <mxGeometry x="1020" y="370" width="160" height="50" as="geometry" />
        </mxCell>
        <mxCell id="7Rt1AeMCabljhUDHSIz8-78" value="" style="rounded=0;whiteSpace=wrap;html=1;" vertex="1" parent="1">
          <mxGeometry x="1560" y="1070" width="130" height="130" as="geometry" />
        </mxCell>
        <mxCell id="7Rt1AeMCabljhUDHSIz8-79" value="计划维度" style="rounded=0;whiteSpace=wrap;html=1;" vertex="1" parent="1">
          <mxGeometry x="1591" y="1110" width="70" height="40" as="geometry" />
        </mxCell>
        <mxCell id="7Rt1AeMCabljhUDHSIz8-80" value="商品维度" style="rounded=0;whiteSpace=wrap;html=1;" vertex="1" parent="1">
          <mxGeometry x="1590" y="1155" width="70" height="40" as="geometry" />
        </mxCell>
        <mxCell id="7Rt1AeMCabljhUDHSIz8-81" value="离线投放消耗" style="text;html=1;strokeColor=none;fillColor=none;align=center;verticalAlign=middle;whiteSpace=wrap;rounded=0;" vertex="1" parent="1">
          <mxGeometry x="1570" y="1070" width="110" height="30" as="geometry" />
        </mxCell>
        <mxCell id="7Rt1AeMCabljhUDHSIz8-82" value="" style="rounded=0;whiteSpace=wrap;html=1;" vertex="1" parent="1">
          <mxGeometry x="1755" y="1070" width="130" height="130" as="geometry" />
        </mxCell>
        <mxCell id="7Rt1AeMCabljhUDHSIz8-83" value="计划维度" style="rounded=0;whiteSpace=wrap;html=1;" vertex="1" parent="1">
          <mxGeometry x="1786" y="1110" width="70" height="40" as="geometry" />
        </mxCell>
        <mxCell id="7Rt1AeMCabljhUDHSIz8-84" value="商品维度" style="rounded=0;whiteSpace=wrap;html=1;" vertex="1" parent="1">
          <mxGeometry x="1785" y="1155" width="70" height="40" as="geometry" />
        </mxCell>
        <mxCell id="7Rt1AeMCabljhUDHSIz8-85" value="日消耗数据" style="text;html=1;strokeColor=none;fillColor=none;align=center;verticalAlign=middle;whiteSpace=wrap;rounded=0;" vertex="1" parent="1">
          <mxGeometry x="1765" y="1070" width="110" height="30" as="geometry" />
        </mxCell>
        <mxCell id="7Rt1AeMCabljhUDHSIz8-123" value="" style="edgeStyle=orthogonalEdgeStyle;rounded=0;orthogonalLoop=1;jettySize=auto;html=1;" edge="1" parent="1" source="7Rt1AeMCabljhUDHSIz8-87">
          <mxGeometry relative="1" as="geometry">
            <mxPoint x="1120" y="580" as="targetPoint" />
          </mxGeometry>
        </mxCell>
        <mxCell id="7Rt1AeMCabljhUDHSIz8-87" value="算法API" style="rounded=0;whiteSpace=wrap;html=1;" vertex="1" parent="1">
          <mxGeometry x="1200" y="550" width="120" height="60" as="geometry" />
        </mxCell>
        <mxCell id="7Rt1AeMCabljhUDHSIz8-88" value="广告结算" style="rounded=0;whiteSpace=wrap;html=1;" vertex="1" parent="1">
          <mxGeometry x="2000" y="1090" width="120" height="60" as="geometry" />
        </mxCell>
        <mxCell id="7Rt1AeMCabljhUDHSIz8-89" value="赔付" style="rhombus;whiteSpace=wrap;html=1;" vertex="1" parent="1">
          <mxGeometry x="2267" y="1080" width="80" height="80" as="geometry" />
        </mxCell>
        <mxCell id="7Rt1AeMCabljhUDHSIz8-90" value="退出" style="rounded=0;whiteSpace=wrap;html=1;" vertex="1" parent="1">
          <mxGeometry x="2462" y="1090" width="120" height="60" as="geometry" />
        </mxCell>
        <mxCell id="7Rt1AeMCabljhUDHSIz8-91" value="BPMS审批流" style="rounded=0;whiteSpace=wrap;html=1;" vertex="1" parent="1">
          <mxGeometry x="2247" y="995" width="120" height="60" as="geometry" />
        </mxCell>
        <mxCell id="7Rt1AeMCabljhUDHSIz8-92" value="赔付回调执行" style="rounded=0;whiteSpace=wrap;html=1;" vertex="1" parent="1">
          <mxGeometry x="2247" y="900" width="120" height="60" as="geometry" />
        </mxCell>
        <mxCell id="7Rt1AeMCabljhUDHSIz8-124" value="" style="edgeStyle=orthogonalEdgeStyle;rounded=0;orthogonalLoop=1;jettySize=auto;html=1;" edge="1" parent="1" source="7Rt1AeMCabljhUDHSIz8-98" target="7Rt1AeMCabljhUDHSIz8-105">
          <mxGeometry relative="1" as="geometry" />
        </mxCell>
        <mxCell id="7Rt1AeMCabljhUDHSIz8-98" value="" style="rounded=0;whiteSpace=wrap;html=1;" vertex="1" parent="1">
          <mxGeometry x="957" y="515" width="160" height="140" as="geometry" />
        </mxCell>
        <mxCell id="7Rt1AeMCabljhUDHSIz8-100" value="计划日限额" style="rounded=0;whiteSpace=wrap;html=1;" vertex="1" parent="1">
          <mxGeometry x="967" y="550" width="65" height="40" as="geometry" />
        </mxCell>
        <mxCell id="7Rt1AeMCabljhUDHSIz8-101" value="商品日限额" style="rounded=0;whiteSpace=wrap;html=1;" vertex="1" parent="1">
          <mxGeometry x="1041" y="550" width="65" height="40" as="geometry" />
        </mxCell>
        <mxCell id="7Rt1AeMCabljhUDHSIz8-102" value="词+出价" style="rounded=0;whiteSpace=wrap;html=1;" vertex="1" parent="1">
          <mxGeometry x="967" y="605" width="65" height="40" as="geometry" />
        </mxCell>
        <mxCell id="7Rt1AeMCabljhUDHSIz8-103" value="人群+出价" style="rounded=0;whiteSpace=wrap;html=1;" vertex="1" parent="1">
          <mxGeometry x="1041" y="605" width="65" height="40" as="geometry" />
        </mxCell>
        <mxCell id="7Rt1AeMCabljhUDHSIz8-104" value="投放目标数据" style="text;html=1;strokeColor=none;fillColor=none;align=center;verticalAlign=middle;whiteSpace=wrap;rounded=0;" vertex="1" parent="1">
          <mxGeometry x="997" y="520" width="80" height="30" as="geometry" />
        </mxCell>
        <mxCell id="7Rt1AeMCabljhUDHSIz8-125" value="" style="edgeStyle=orthogonalEdgeStyle;rounded=0;orthogonalLoop=1;jettySize=auto;html=1;" edge="1" parent="1" source="7Rt1AeMCabljhUDHSIz8-105" target="7Rt1AeMCabljhUDHSIz8-107">
          <mxGeometry relative="1" as="geometry" />
        </mxCell>
        <mxCell id="7Rt1AeMCabljhUDHSIz8-126" style="edgeStyle=orthogonalEdgeStyle;rounded=0;orthogonalLoop=1;jettySize=auto;html=1;" edge="1" parent="1" source="7Rt1AeMCabljhUDHSIz8-105" target="7Rt1AeMCabljhUDHSIz8-108">
          <mxGeometry relative="1" as="geometry" />
        </mxCell>
        <mxCell id="7Rt1AeMCabljhUDHSIz8-105" value="推广维度&lt;br&gt;日预算校验" style="rhombus;whiteSpace=wrap;html=1;" vertex="1" parent="1">
          <mxGeometry x="807" y="535" width="100" height="100" as="geometry" />
        </mxCell>
        <mxCell id="7Rt1AeMCabljhUDHSIz8-127" value="" style="edgeStyle=orthogonalEdgeStyle;rounded=0;orthogonalLoop=1;jettySize=auto;html=1;entryX=1;entryY=0.25;entryDx=0;entryDy=0;" edge="1" parent="1" source="7Rt1AeMCabljhUDHSIz8-107" target="7Rt1AeMCabljhUDHSIz8-109">
          <mxGeometry relative="1" as="geometry" />
        </mxCell>
        <mxCell id="7Rt1AeMCabljhUDHSIz8-107" value="资金系统&lt;br&gt;预算调拨" style="rounded=0;whiteSpace=wrap;html=1;" vertex="1" parent="1">
          <mxGeometry x="642.5" y="555" width="120" height="60" as="geometry" />
        </mxCell>
        <mxCell id="7Rt1AeMCabljhUDHSIz8-108" value="退出" style="rounded=0;whiteSpace=wrap;html=1;" vertex="1" parent="1">
          <mxGeometry x="797" y="765" width="120" height="60" as="geometry" />
        </mxCell>
        <mxCell id="7Rt1AeMCabljhUDHSIz8-109" value="" style="rounded=0;whiteSpace=wrap;html=1;" vertex="1" parent="1">
          <mxGeometry x="350" y="535" width="210" height="200" as="geometry" />
        </mxCell>
        <mxCell id="7Rt1AeMCabljhUDHSIz8-110" value="直通车" style="rounded=0;whiteSpace=wrap;html=1;" vertex="1" parent="1">
          <mxGeometry x="360" y="580" width="60" height="30" as="geometry" />
        </mxCell>
        <mxCell id="7Rt1AeMCabljhUDHSIz8-111" value="钻展" style="rounded=0;whiteSpace=wrap;html=1;" vertex="1" parent="1">
          <mxGeometry x="425" y="580" width="60" height="30" as="geometry" />
        </mxCell>
        <mxCell id="7Rt1AeMCabljhUDHSIz8-112" value="超推" style="rounded=0;whiteSpace=wrap;html=1;" vertex="1" parent="1">
          <mxGeometry x="490" y="580" width="60" height="30" as="geometry" />
        </mxCell>
        <mxCell id="7Rt1AeMCabljhUDHSIz8-113" value="万相台" style="rounded=0;whiteSpace=wrap;html=1;" vertex="1" parent="1">
          <mxGeometry x="360" y="631" width="60" height="30" as="geometry" />
        </mxCell>
        <mxCell id="7Rt1AeMCabljhUDHSIz8-114" value="引力魔方" style="rounded=0;whiteSpace=wrap;html=1;" vertex="1" parent="1">
          <mxGeometry x="425" y="631" width="60" height="30" as="geometry" />
        </mxCell>
        <mxCell id="7Rt1AeMCabljhUDHSIz8-115" value="天猫超市" style="rounded=0;whiteSpace=wrap;html=1;" vertex="1" parent="1">
          <mxGeometry x="490" y="631" width="60" height="30" as="geometry" />
        </mxCell>
        <mxCell id="7Rt1AeMCabljhUDHSIz8-116" value="手猫搜索" style="rounded=0;whiteSpace=wrap;html=1;" vertex="1" parent="1">
          <mxGeometry x="360" y="680" width="60" height="30" as="geometry" />
        </mxCell>
        <mxCell id="7Rt1AeMCabljhUDHSIz8-117" value="手猫推荐" style="rounded=0;whiteSpace=wrap;html=1;" vertex="1" parent="1">
          <mxGeometry x="425" y="680" width="60" height="30" as="geometry" />
        </mxCell>
        <mxCell id="7Rt1AeMCabljhUDHSIz8-118" value="联盟站外" style="rounded=0;whiteSpace=wrap;html=1;" vertex="1" parent="1">
          <mxGeometry x="490" y="680" width="60" height="30" as="geometry" />
        </mxCell>
        <mxCell id="7Rt1AeMCabljhUDHSIz8-119" value="BP投放" style="text;html=1;strokeColor=none;fillColor=none;align=center;verticalAlign=middle;whiteSpace=wrap;rounded=0;" vertex="1" parent="1">
          <mxGeometry x="425" y="535" width="60" height="30" as="geometry" />
        </mxCell>
        <mxCell id="7Rt1AeMCabljhUDHSIz8-132" value="" style="edgeStyle=orthogonalEdgeStyle;rounded=0;orthogonalLoop=1;jettySize=auto;html=1;entryDx=0;entryDy=0;entryX=0.5;entryY=1;" edge="1" parent="1" source="7Rt1AeMCabljhUDHSIz8-41" target="7Rt1AeMCabljhUDHSIz8-87">
          <mxGeometry relative="1" as="geometry">
            <mxPoint x="1345" y="830" as="sourcePoint" />
            <mxPoint x="1260" y="616" as="targetPoint" />
          </mxGeometry>
        </mxCell>
        <mxCell id="7Rt1AeMCabljhUDHSIz8-146" value="" style="edgeStyle=orthogonalEdgeStyle;rounded=0;orthogonalLoop=1;jettySize=auto;html=1;" edge="1" parent="1" source="7Rt1AeMCabljhUDHSIz8-140" target="7Rt1AeMCabljhUDHSIz8-145">
          <mxGeometry relative="1" as="geometry" />
        </mxCell>
        <mxCell id="7Rt1AeMCabljhUDHSIz8-140" value="消耗阈值" style="rhombus;whiteSpace=wrap;html=1;" vertex="1" parent="1">
          <mxGeometry x="807" y="860" width="100" height="100" as="geometry" />
        </mxCell>
        <mxCell id="7Rt1AeMCabljhUDHSIz8-145" value="暂停投放" style="rounded=0;whiteSpace=wrap;html=1;" vertex="1" parent="1">
          <mxGeometry x="797" y="1010" width="120" height="60" as="geometry" />
        </mxCell>
      </root>
    </mxGraphModel>
  </diagram>
</mxfile>
